<svg width="21" height="20" viewBox="0 0 21 20" fill="none" xmlns="http://www.w3.org/2000/svg">
<g clip-path="url(#clip0_40004471_3542)">
<path d="M20.0655 10.2385C20.0655 9.56462 20.0003 8.86897 19.8916 8.2168H10.4785V12.0646H15.8698C15.6524 13.3038 14.935 14.3907 13.8698 15.0864L17.0872 17.5864C18.9785 15.8255 20.0655 13.2603 20.0655 10.2385Z" fill="#4280EF"/>
<path d="M10.4775 19.979C13.1732 19.979 15.434 19.0877 17.0862 17.566L13.8688 15.0877C12.9775 15.6964 11.8253 16.0442 10.4775 16.0442C7.8688 16.0442 5.67315 14.2834 4.8688 11.9355L1.56445 14.479C3.26011 17.8486 6.69489 19.979 10.4775 19.979Z" fill="#34A353"/>
<path d="M4.86804 11.9128C4.45499 10.6737 4.45499 9.32583 4.86804 8.0867L1.56369 5.52148C0.150645 8.34757 0.150645 11.6737 1.56369 14.478L4.86804 11.9128Z" fill="#F6B704"/>
<path d="M10.4775 3.97839C11.8905 3.95665 13.2818 4.50013 14.3036 5.47839L17.1514 2.60882C15.3471 0.913168 12.9558 0.000124661 10.4775 0.0218638C6.69489 0.0218638 3.26011 2.1523 1.56445 5.52187L4.8688 8.08708C5.67315 5.71752 7.8688 3.97839 10.4775 3.97839Z" fill="#E54335"/>
</g>
<defs>
<clipPath id="clip0_40004471_3542">
<rect width="20" height="20" fill="white" transform="translate(0.5)"/>
</clipPath>
</defs>
</svg>
