<svg width="16" height="16" viewBox="0 0 16 16" fill="none" xmlns="http://www.w3.org/2000/svg">
<path d="M13.5554 9.55566H10.8888C10.6433 9.55566 10.4443 9.75465 10.4443 10.0001V11.3334C10.4443 11.5789 10.6433 11.7779 10.8888 11.7779H13.5554C13.8009 11.7779 13.9999 11.5789 13.9999 11.3334V10.0001C13.9999 9.75465 13.8009 9.55566 13.5554 9.55566Z" stroke="#818181" stroke-width="1.5" stroke-linecap="round" stroke-linejoin="round"/>
<path d="M12.2222 9.55566V5.55566" stroke="#818181" stroke-width="1.5" stroke-linecap="round" stroke-linejoin="round"/>
<path d="M8.88873 14.4443H2.6665" stroke="#818181" stroke-width="1.5" stroke-linecap="round" stroke-linejoin="round"/>
<path d="M4.22217 14.4446V2.00011C4.22217 1.75478 4.42128 1.55566 4.66661 1.55566H6.88883C7.13417 1.55566 7.33328 1.75478 7.33328 2.00011V14.4446" stroke="#818181" stroke-width="1.5" stroke-linecap="round" stroke-linejoin="round"/>
<path d="M9.55572 5.55523H13.7877C14.1024 5.55523 14.3175 5.2379 14.2002 4.94545L13.6668 3.61212C13.5993 3.44323 13.4357 3.33301 13.2544 3.33301H7.3335" stroke="#818181" stroke-width="1.5" stroke-linecap="round" stroke-linejoin="round"/>
<path d="M4.22233 3.33301H2.00011C1.75478 3.33301 1.55566 3.53212 1.55566 3.77745V5.11079C1.55566 5.35612 1.75478 5.55523 2.00011 5.55523H7.33344" stroke="#818181" stroke-width="1.5" stroke-linecap="round" stroke-linejoin="round"/>
<path d="M4.22217 8.22266H7.33328" stroke="#818181" stroke-width="1.5" stroke-linecap="round" stroke-linejoin="round"/>
<path d="M4.22217 10.8887H7.33328" stroke="#818181" stroke-width="1.5" stroke-linecap="round" stroke-linejoin="round"/>
</svg>
