<svg width="20" height="20" viewBox="0 0 20 20" fill="none" xmlns="http://www.w3.org/2000/svg">
<path d="M8.05566 16.9446C8.97566 16.9446 9.72233 16.1979 9.72233 15.2779V11.9446C9.72233 10.7168 10.7168 9.72233 11.9446 9.72233H15.2779C16.1979 9.72233 16.9446 8.97566 16.9446 8.05566" stroke="#222222" stroke-width="1.5" stroke-linecap="round" stroke-linejoin="round"/>
<path d="M8.35011 16.9446H5.27789C4.05011 16.9446 3.05566 15.9501 3.05566 14.7223V5.27789C3.05566 4.05011 4.05011 3.05566 5.27789 3.05566H14.7223C15.9501 3.05566 16.9446 4.05011 16.9446 5.27789V8.35011C16.9446 10.1179 16.2423 11.8134 14.9923 13.0646L13.0646 14.9923C11.8146 16.2423 10.119 16.9446 8.35011 16.9446Z" stroke="#222222" stroke-width="1.5" stroke-linecap="round" stroke-linejoin="round"/>
</svg>
