<svg width="18" height="19" viewBox="0 0 18 19" fill="none" xmlns="http://www.w3.org/2000/svg">
<path d="M16.213 9.07129H11.75C11.336 9.07129 11 9.40729 11 9.82129V10.8213C11 10.9593 10.888 11.0713 10.75 11.0713H7.24998C7.11198 11.0713 6.99998 10.9593 6.99998 10.8213V9.82129C6.99998 9.40729 6.66398 9.07129 6.24998 9.07129H1.78698C1.42698 9.07129 1.11898 9.32629 1.05098 9.67929C1.01798 9.85029 1.00098 10.0243 1.00098 10.2003V13.3213C1.00098 14.8383 2.23398 16.0713 3.75098 16.0713H14.25C15.767 16.0713 17 14.8383 17 13.3213V10.2003C17 10.0243 16.983 9.85029 16.95 9.67929C16.882 9.32629 16.574 9.07129 16.214 9.07129H16.213Z" fill="#666666"/>
<path d="M16.212 10.5713C15.86 10.5713 15.547 10.3223 15.477 9.96529C15.462 9.88929 15.441 9.81529 15.414 9.74329L13.301 4.36429C13.112 3.88229 12.655 3.57129 12.137 3.57129H5.86296C5.34496 3.57129 4.88796 3.88229 4.69896 4.36429L2.58596 9.74329C2.55796 9.81529 2.53696 9.88929 2.52196 9.96529C2.44196 10.3723 2.04696 10.6373 1.64196 10.5583C1.23496 10.4783 0.969963 10.0843 1.04896 9.67829C1.08096 9.51329 1.12796 9.35129 1.18996 9.19529L3.30296 3.81529C3.71996 2.75529 4.72396 2.07129 5.86296 2.07129H12.136C13.275 2.07129 14.28 2.75629 14.696 3.81529L16.809 9.19429C16.871 9.35129 16.917 9.51329 16.949 9.67729C17.028 10.0833 16.763 10.4773 16.356 10.5573C16.308 10.5663 16.26 10.5713 16.212 10.5713Z" fill="#666666"/>
</svg>
