<svg width="18" height="19" viewBox="0 0 18 19" fill="none" xmlns="http://www.w3.org/2000/svg">
<path d="M9.25 2.07129H8.75C7.7835 2.07129 7 2.85479 7 3.82129V14.3213C7 15.2878 7.7835 16.0713 8.75 16.0713H9.25C10.2165 16.0713 11 15.2878 11 14.3213V3.82129C11 2.85479 10.2165 2.07129 9.25 2.07129Z" fill="#666666"/>
<path d="M3.75 7.07129H3.25C2.2835 7.07129 1.5 7.85479 1.5 8.82129V14.3213C1.5 15.2878 2.2835 16.0713 3.25 16.0713H3.75C4.7165 16.0713 5.5 15.2878 5.5 14.3213V8.82129C5.5 7.85479 4.7165 7.07129 3.75 7.07129Z" fill="#666666"/>
<path d="M14.75 11.0713H14.25C13.2835 11.0713 12.5 11.8548 12.5 12.8213V14.3213C12.5 15.2878 13.2835 16.0713 14.25 16.0713H14.75C15.7165 16.0713 16.5 15.2878 16.5 14.3213V12.8213C16.5 11.8548 15.7165 11.0713 14.75 11.0713Z" fill="#666666"/>
</svg>
