<svg width="17" height="17" viewBox="0 0 17 17" fill="none" xmlns="http://www.w3.org/2000/svg">
<path d="M16.25 6.07129C15.836 6.07129 15.5 5.73529 15.5 5.32129V2.82129C15.5 2.40729 15.836 2.07129 16.25 2.07129C16.664 2.07129 17 2.40729 17 2.82129V5.32129C17 5.73529 16.664 6.07129 16.25 6.07129Z" fill="#666666"/>
<path d="M16.25 11.0713C15.836 11.0713 15.5 10.7353 15.5 10.3213V7.82129C15.5 7.40729 15.836 7.07129 16.25 7.07129C16.664 7.07129 17 7.40729 17 7.82129V10.3213C17 10.7353 16.664 11.0713 16.25 11.0713Z" fill="#666666"/>
<path d="M11.75 0.0712891H4.25C2.731 0.0712891 1.5 1.30229 1.5 2.82129V4.07129H0.75C0.336 4.07129 0 4.40729 0 4.82129C0 5.23529 0.336 5.57129 0.75 5.57129H1.5V7.32129H0.75C0.336 7.32129 0 7.65729 0 8.07129C0 8.48529 0.336 8.82129 0.75 8.82129H1.5V10.5713H0.75C0.336 10.5713 0 10.9073 0 11.3213C0 11.7353 0.336 12.0713 0.75 12.0713H1.5V13.3213C1.5 14.8403 2.731 16.0713 4.25 16.0713H11.75C13.269 16.0713 14.5 14.8403 14.5 13.3213V2.82129C14.5 1.30229 13.269 0.0712891 11.75 0.0712891ZM8 3.07129C9.103 3.07129 10 3.96829 10 5.07129C10 6.17429 9.103 7.07129 8 7.07129C6.897 7.07129 6 6.17429 6 5.07129C6 3.96829 6.897 3.07129 8 3.07129ZM11.601 11.7553C11.459 11.9453 11.237 12.0573 11 12.0573H5C4.763 12.0573 4.541 11.9453 4.399 11.7553C4.257 11.5653 4.213 11.3203 4.281 11.0933C4.767 9.46129 6.296 8.32229 8 8.32229C9.704 8.32229 11.233 9.46229 11.719 11.0933C11.787 11.3203 11.743 11.5653 11.601 11.7553Z" fill="#666666"/>
</svg>
