<svg width="16" height="16" viewBox="0 0 16 16" fill="none" xmlns="http://www.w3.org/2000/svg">
<path d="M15.25 1.57129H0.75C0.336 1.57129 0 1.23529 0 0.821289C0 0.407289 0.336 0.0712891 0.75 0.0712891H15.25C15.664 0.0712891 16 0.407289 16 0.821289C16 1.23529 15.664 1.57129 15.25 1.57129Z" fill="#666666"/>
<path d="M13.75 3.07129H2.25C1.836 3.07129 1.5 3.40729 1.5 3.82129V14.3213C1.5 14.5863 1.64 14.8313 1.867 14.9663C2.094 15.1003 2.376 15.1073 2.609 14.9793L5.015 13.6673L7.664 14.9923C7.875 15.0973 8.124 15.0973 8.335 14.9923L10.984 13.6673L13.39 14.9793C13.502 15.0413 13.626 15.0713 13.749 15.0713C13.881 15.0713 14.014 15.0363 14.132 14.9663C14.36 14.8313 14.499 14.5863 14.499 14.3213V3.82129C14.499 3.40729 14.163 3.07129 13.749 3.07129H13.75ZM8.25 10.0713H4.75C4.336 10.0713 4 9.73529 4 9.32129C4 8.90729 4.336 8.57129 4.75 8.57129H8.25C8.664 8.57129 9 8.90729 9 9.32129C9 9.73529 8.664 10.0713 8.25 10.0713ZM8.25 7.07129H4.75C4.336 7.07129 4 6.73529 4 6.32129C4 5.90729 4.336 5.57129 4.75 5.57129H8.25C8.664 5.57129 9 5.90729 9 6.32129C9 6.73529 8.664 7.07129 8.25 7.07129ZM11.25 10.0713H10.75C10.336 10.0713 10 9.73529 10 9.32129C10 8.90729 10.336 8.57129 10.75 8.57129H11.25C11.664 8.57129 12 8.90729 12 9.32129C12 9.73529 11.664 10.0713 11.25 10.0713ZM11.25 7.07129H10.75C10.336 7.07129 10 6.73529 10 6.32129C10 5.90729 10.336 5.57129 10.75 5.57129H11.25C11.664 5.57129 12 5.90729 12 6.32129C12 6.73529 11.664 7.07129 11.25 7.07129Z" fill="#666666"/>
</svg>
