<svg width="18" height="19" viewBox="0 0 18 19" fill="none" xmlns="http://www.w3.org/2000/svg">
<path d="M15.866 8.12729L10.116 2.37729C9.596 1.85729 8.906 1.57129 8.171 1.57129H3.25C2.285 1.57129 1.5 2.35629 1.5 3.32129V8.24229C1.5 8.97729 1.786 9.66729 2.306 10.1873L8.056 15.9373C8.575 16.4573 9.266 16.7423 10 16.7423C10.734 16.7423 11.425 16.4563 11.944 15.9373L15.866 12.0153C16.386 11.4963 16.671 10.8053 16.671 10.0713C16.671 9.33729 16.385 8.64629 15.866 8.12729ZM6.25 7.57129C5.561 7.57129 5 7.01029 5 6.32129C5 5.63229 5.561 5.07129 6.25 5.07129C6.939 5.07129 7.5 5.63229 7.5 6.32129C7.5 7.01029 6.939 7.57129 6.25 7.57129ZM10.53 12.6013C10.384 12.7473 10.192 12.8213 10 12.8213C9.808 12.8213 9.616 12.7483 9.47 12.6013L7.47 10.6013C7.177 10.3083 7.177 9.83329 7.47 9.54029C7.763 9.24729 8.238 9.24729 8.531 9.54029L10.531 11.5403C10.824 11.8333 10.824 12.3083 10.531 12.6013H10.53ZM12.53 10.6013C12.384 10.7473 12.192 10.8213 12 10.8213C11.808 10.8213 11.616 10.7483 11.47 10.6013L9.47 8.60129C9.177 8.30829 9.177 7.83329 9.47 7.54029C9.763 7.24729 10.238 7.24729 10.531 7.54029L12.531 9.54029C12.824 9.83329 12.824 10.3083 12.531 10.6013H12.53Z" fill="#666666"/>
</svg>
