<svg width="16" height="16" viewBox="0 0 16 16" fill="none" xmlns="http://www.w3.org/2000/svg">
<path d="M14.75 11.0713H14V2.82129C14 1.58029 12.991 0.571289 11.75 0.571289H2.25C1.009 0.571289 0 1.58029 0 2.82129V4.82129C0 5.78629 0.785 6.57129 1.75 6.57129H3V13.3213C3 14.5623 4.009 15.5713 5.25 15.5713H13.75C14.991 15.5713 16 14.5623 16 13.3213V12.3213C16 11.6323 15.439 11.0713 14.75 11.0713ZM3 5.07129H1.75C1.612 5.07129 1.5 4.95929 1.5 4.82129V2.82129C1.5 2.40729 1.836 2.07129 2.25 2.07129C2.664 2.07129 3 2.40729 3 2.82129V5.07129ZM6.5 4.07129H10.5C10.914 4.07129 11.25 4.40729 11.25 4.82129C11.25 5.23529 10.914 5.57129 10.5 5.57129H6.5C6.086 5.57129 5.75 5.23529 5.75 4.82129C5.75 4.40729 6.086 4.07129 6.5 4.07129ZM5.75 7.82129C5.75 7.40729 6.086 7.07129 6.5 7.07129H10.5C10.914 7.07129 11.25 7.40729 11.25 7.82129C11.25 8.23529 10.914 8.57129 10.5 8.57129H6.5C6.086 8.57129 5.75 8.23529 5.75 7.82129ZM14.5 13.3213C14.5 13.7353 14.164 14.0713 13.75 14.0713H7.362C7.446 13.8353 7.5 13.5853 7.5 13.3213V12.5713H14.5V13.3213Z" fill="#666666"/>
</svg>
