<svg width="15" height="15" viewBox="0 0 15 15" fill="none" xmlns="http://www.w3.org/2000/svg">
<path d="M6 9.57129H0.75C0.336 9.57129 0 9.23529 0 8.82129C0 8.40729 0.336 8.07129 0.75 8.07129H6C6.414 8.07129 6.75 8.40729 6.75 8.82129C6.75 9.23529 6.414 9.57129 6 9.57129Z" fill="#666666"/>
<path d="M13.205 5.57129H0.75C0.336 5.57129 0 5.23529 0 4.82129C0 4.40729 0.336 4.07129 0.75 4.07129H13.205C13.619 4.07129 13.955 4.40729 13.955 4.82129C13.955 5.23529 13.619 5.57129 13.205 5.57129Z" fill="#666666"/>
<path d="M13.25 1.57129H0.75C0.336 1.57129 0 1.23529 0 0.821289C0 0.407289 0.336 0.0712891 0.75 0.0712891H13.25C13.664 0.0712891 14 0.407289 14 0.821289C14 1.23529 13.664 1.57129 13.25 1.57129Z" fill="#666666"/>
<path d="M14.4873 9.60939L12.5928 8.97849L11.9615 7.08399C11.8594 6.77829 11.5728 6.57129 11.2501 6.57129C10.9274 6.57129 10.6407 6.77829 10.5387 7.08399L9.9074 8.97849L8.0129 9.60939C7.70668 9.71189 7.50018 9.99809 7.50018 10.3213C7.50018 10.6445 7.70668 10.9307 8.0129 11.0332L9.9074 11.6641L10.5387 13.5586C10.6408 13.8643 10.9274 14.0713 11.2501 14.0713C11.5728 14.0713 11.8595 13.8643 11.9615 13.5586L12.5928 11.6641L14.4873 11.0332C14.7935 10.9307 15 10.6445 15 10.3213C15 9.99809 14.7935 9.71189 14.4873 9.60939Z" fill="#666666"/>
</svg>
