<svg width="14" height="16" viewBox="0 0 14 16" fill="none" xmlns="http://www.w3.org/2000/svg">
<path d="M7.00002 10.0713C4.58702 10.0713 2.32802 11.1493 0.800024 13.0283C0.494024 13.4043 0.435024 13.9113 0.644024 14.3513C0.856024 14.7953 1.29102 15.0713 1.78102 15.0713H12.219C12.709 15.0713 13.144 14.7953 13.356 14.3513C13.565 13.9113 13.506 13.4043 13.2 13.0283C11.672 11.1493 9.41202 10.0713 7.00002 10.0713Z" fill="#666666"/>
<path d="M12 3.57123H11.375C10.971 1.80423 9.534 0.44023 7.75 0.13623V1.32123C7.75 1.73523 7.414 2.07123 7 2.07123C6.586 2.07123 6.25 1.73523 6.25 1.32123V0.13623C4.466 0.44023 3.029 1.80423 2.625 3.57123H2C1.586 3.57123 1.25 3.90723 1.25 4.32123C1.25 4.73523 1.586 5.07123 2 5.07123H2.551C2.803 7.31523 4.69 9.07123 7 9.07123C9.31 9.07123 11.197 7.31523 11.449 5.07123H12C12.414 5.07123 12.75 4.73523 12.75 4.32123C12.75 3.90723 12.414 3.57123 12 3.57123ZM7 7.57123C5.517 7.57123 4.29 6.48723 4.051 5.07123H9.95C9.71 6.48723 8.484 7.57123 7.001 7.57123H7Z" fill="#666666"/>
</svg>
