<svg width="32" height="32" viewBox="0 0 32 32" fill="none" xmlns="http://www.w3.org/2000/svg">
<rect width="32" height="32" rx="8" fill="#F7F7F7"/>
<path d="M14.3337 15.1667H11.0003C10.5401 15.1667 10.167 14.7936 10.167 14.3333V11.8333C10.167 11.3731 10.5401 11 11.0003 11H13.5003C13.9606 11 14.3337 11.3731 14.3337 11.8333V16.8333C14.3337 19.0558 13.2228 20.4442 11.0003 21" stroke="#515151" stroke-width="1.5" stroke-linecap="round" stroke-linejoin="round"/>
<path d="M21.8337 15.1667H18.5003C18.0401 15.1667 17.667 14.7936 17.667 14.3333V11.8333C17.667 11.3731 18.0401 11 18.5003 11H21.0003C21.4606 11 21.8337 11.3731 21.8337 11.8333V16.8333C21.8337 19.0558 20.7228 20.4442 18.5003 21" stroke="#515151" stroke-width="1.5" stroke-linecap="round" stroke-linejoin="round"/>
</svg>
