<svg width="20" height="20" viewBox="0 0 20 20" fill="none" xmlns="http://www.w3.org/2000/svg">
<path d="M12.2201 4.48761C12.6043 4.64233 13.0412 4.45628 13.1959 4.07205C13.3507 3.68781 13.1646 3.25091 12.7804 3.09618L12.2201 4.48761ZM7.22007 16.9043C7.60431 17.059 8.04121 16.8729 8.19594 16.4887C8.35066 16.1045 8.16461 15.6676 7.78038 15.5128L7.22007 16.9043ZM8.25023 12.5002C8.25023 12.086 7.91444 11.7502 7.50023 11.7502C7.08601 11.7502 6.75023 12.086 6.75023 12.5002H8.25023ZM7.50023 16.6669V17.4169C7.91444 17.4169 8.25023 17.0811 8.25023 16.6669H7.50023ZM3.33356 15.9169C2.91935 15.9169 2.58356 16.2527 2.58356 16.6669C2.58356 17.0811 2.91935 17.4169 3.33356 17.4169V15.9169ZM12.5002 3.79189L12.7804 3.09618C8.96738 1.56075 4.63162 3.40708 3.09618 7.22007L3.79189 7.50023L4.48761 7.78038C5.71359 4.73584 9.17554 3.26162 12.2201 4.48761L12.5002 3.79189ZM3.79189 7.50023L3.09618 7.22007C1.56075 11.0331 3.40708 15.3688 7.22007 16.9043L7.50023 16.2086L7.78038 15.5128C4.73584 14.2869 3.26162 10.8249 4.48761 7.78038L3.79189 7.50023ZM7.50023 12.5002H6.75023V16.6669H7.50023H8.25023V12.5002H7.50023ZM7.50023 16.6669V15.9169H3.33356V16.6669V17.4169H7.50023V16.6669Z" fill="#222222"/>
<path d="M15.3083 5.96621V5.97454" stroke="#222222" stroke-width="1.5" stroke-linecap="round" stroke-linejoin="round"/>
<path d="M10.8332 16.6166V16.6249" stroke="#222222" stroke-width="1.5" stroke-linecap="round" stroke-linejoin="round"/>
<path d="M14.0334 15.308V15.3163" stroke="#222222" stroke-width="1.5" stroke-linecap="round" stroke-linejoin="round"/>
<path d="M16.1418 12.5834V12.5917" stroke="#222222" stroke-width="1.5" stroke-linecap="round" stroke-linejoin="round"/>
<path d="M16.6169 9.16641V9.17474" stroke="#222222" stroke-width="1.5" stroke-linecap="round" stroke-linejoin="round"/>
</svg>
