<svg width="18" height="18" viewBox="0 0 18 18" fill="none" xmlns="http://www.w3.org/2000/svg">
<path d="M13 12.582C14.959 12.94 16.25 13.554 16.25 14.25C16.25 15.355 13.004 16.25 9 16.25C4.996 16.25 1.75 15.355 1.75 14.25C1.75 13.553 3.041 12.94 5 12.582" stroke="#222222" stroke-width="1.5" stroke-linecap="round" stroke-linejoin="round"/>
<path d="M13.4293 5.978C13.4293 7.6172 11.681 10.0672 10.3812 11.6621C9.65796 12.5496 8.34255 12.5497 7.61923 11.6622C6.31949 10.0675 4.57129 7.61777 4.57129 5.978C4.57129 3.303 6.86029 1.75 9.00029 1.75C11.1403 1.75 13.4293 3.302 13.4293 5.978Z" stroke="#222222" stroke-width="1.5" stroke-linecap="round" stroke-linejoin="round"/>
<path d="M9 7.5C9.82843 7.5 10.5 6.82843 10.5 6C10.5 5.17157 9.82843 4.5 9 4.5C8.17157 4.5 7.5 5.17157 7.5 6C7.5 6.82843 8.17157 7.5 9 7.5Z" stroke="#222222" stroke-width="1.5" stroke-linecap="round" stroke-linejoin="round"/>
</svg>
