<svg width="18" height="18" viewBox="0 0 18 18" fill="none" xmlns="http://www.w3.org/2000/svg">
<path d="M9 1C4.589 1 1 4.589 1 9C1 13.411 4.589 17 9 17C13.411 17 17 13.411 17 9C17 4.589 13.411 1 9 1ZM8.791 13.567C8.239 13.567 7.791 13.118 7.791 12.567C7.791 12.016 8.239 11.567 8.791 11.567C9.343 11.567 9.791 12.016 9.791 12.567C9.791 13.118 9.343 13.567 8.791 13.567ZM10.32 9.215C9.863 9.534 9.64 9.706 9.565 10.13C9.502 10.494 9.185 10.75 8.828 10.75C8.785 10.75 8.741 10.747 8.697 10.739C8.289 10.667 8.016 10.279 8.089 9.87C8.275 8.813 8.961 8.334 9.463 7.984C9.99 7.616 10.173 7.462 10.173 6.935C10.173 6.098 9.475 5.877 9.106 5.877C8.692 5.877 7.949 6.007 7.629 6.877C7.486 7.266 7.058 7.465 6.666 7.323C6.277 7.18 6.078 6.749 6.221 6.361C6.677 5.119 7.755 4.377 9.106 4.377C10.35 4.377 11.673 5.273 11.673 6.935C11.673 8.272 10.892 8.817 10.32 9.215Z" fill="#666666"/>
</svg>
