<svg width="18" height="18" viewBox="0 0 18 18" fill="none" xmlns="http://www.w3.org/2000/svg">
<path d="M13.75 4.75H4.25C3.14543 4.75 2.25 5.64543 2.25 6.75V13.25C2.25 14.3546 3.14543 15.25 4.25 15.25H13.75C14.8546 15.25 15.75 14.3546 15.75 13.25V6.75C15.75 5.64543 14.8546 4.75 13.75 4.75Z" fill="#666666"/>
<path d="M11.037 9.62911L7.897 7.79711C7.61 7.63011 7.25 7.83711 7.25 8.16811V11.8311C7.25 12.1631 7.61 12.3701 7.897 12.2021L11.037 10.3701C11.321 10.2041 11.321 9.79311 11.037 9.62711V9.62911Z" fill="white"/>
<path d="M4.75 1.75H13.25" stroke="#666666" stroke-width="1.5" stroke-linecap="round" stroke-linejoin="round"/>
</svg>
