<svg width="20" height="20" viewBox="0 0 20 20" fill="none" xmlns="http://www.w3.org/2000/svg">
<path d="M7.21985 3.09618C6.83562 3.25091 6.64956 3.68781 6.80429 4.07205C6.95901 4.45628 7.39592 4.64233 7.78015 4.48761L7.21985 3.09618ZM12.2198 15.5128C11.8356 15.6676 11.6496 16.1045 11.8043 16.4887C11.959 16.8729 12.3959 17.059 12.7802 16.9043L12.2198 15.5128ZM13.25 12.5002C13.25 12.086 12.9142 11.7502 12.5 11.7502C12.0858 11.7502 11.75 12.086 11.75 12.5002H13.25ZM12.5 16.6669H11.75C11.75 17.0811 12.0858 17.4169 12.5 17.4169V16.6669ZM16.6667 17.4169C17.0809 17.4169 17.4167 17.0811 17.4167 16.6669C17.4167 16.2527 17.0809 15.9169 16.6667 15.9169V17.4169ZM7.5 3.79189L7.78015 4.48761C10.8247 3.26162 14.2866 4.73584 15.5126 7.78038L16.2083 7.50023L16.904 7.22007C15.3686 3.40708 11.0328 1.56075 7.21985 3.09618L7.5 3.79189ZM16.2083 7.50023L15.5126 7.78038C16.7386 10.8249 15.2644 14.2869 12.2198 15.5128L12.5 16.2086L12.7802 16.9043C16.5932 15.3688 18.4395 11.0331 16.904 7.22007L16.2083 7.50023ZM12.5 12.5002H11.75V16.6669H12.5H13.25V12.5002H12.5ZM12.5 16.6669V17.4169H16.6667V16.6669V15.9169H12.5V16.6669Z" fill="#222222"/>
<path d="M4.69157 5.96621V5.97454" stroke="#222222" stroke-width="1.5" stroke-linecap="round" stroke-linejoin="round"/>
<path d="M3.38346 9.16641V9.17474" stroke="#222222" stroke-width="1.5" stroke-linecap="round" stroke-linejoin="round"/>
<path d="M3.85856 12.5834V12.5917" stroke="#222222" stroke-width="1.5" stroke-linecap="round" stroke-linejoin="round"/>
<path d="M5.96647 15.308V15.3163" stroke="#222222" stroke-width="1.5" stroke-linecap="round" stroke-linejoin="round"/>
<path d="M9.16667 16.6166V16.6249" stroke="#222222" stroke-width="1.5" stroke-linecap="round" stroke-linejoin="round"/>
</svg>
