<svg width="16" height="16" viewBox="0 0 16 16" fill="none" xmlns="http://www.w3.org/2000/svg">
<path d="M13.1112 14C13.8472 14 14.4446 13.4027 14.4446 12.6667V11.7778C14.4446 11.5324 14.2454 11.3333 14.0001 11.3333H7.33344C7.08811 11.3333 6.889 11.5324 6.889 11.7778V12.6667C6.889 13.4027 6.29166 14 5.55566 14C4.81966 14 4.22233 13.4027 4.22233 12.6667V3.33333C4.22233 2.59733 3.625 2 2.889 2C2.153 2 1.55566 2.59733 1.55566 3.33333V5.11111C1.55566 5.60178 1.95389 6 2.44455 6H4.22233" stroke="#818181" stroke-width="1.5" stroke-linecap="round" stroke-linejoin="round"/>
<path d="M13.1112 14H5.55566" stroke="#818181" stroke-width="1.5" stroke-linecap="round" stroke-linejoin="round"/>
<path d="M2.88867 2H11.3331C12.0691 2 12.6665 2.59733 12.6665 3.33333V9.11111" stroke="#818181" stroke-width="1.5" stroke-linecap="round" stroke-linejoin="round"/>
<path d="M6.6665 5.11133H10.2221" stroke="#818181" stroke-width="1.5" stroke-linecap="round" stroke-linejoin="round"/>
<path d="M6.6665 7.77734H10.2221" stroke="#818181" stroke-width="1.5" stroke-linecap="round" stroke-linejoin="round"/>
</svg>
