<svg width="18" height="18" viewBox="0 0 18 18" fill="none" xmlns="http://www.w3.org/2000/svg">
<path d="M15.676 6.93412L14.769 6.61412C14.665 6.36312 14.549 6.11512 14.411 5.87512C14.28 5.64812 14.115 5.45012 13.96 5.24412L14.144 4.26112C14.297 3.43512 13.912 2.59712 13.184 2.17712L12.832 1.97412C12.104 1.55412 11.187 1.63812 10.548 2.18512L9.819 2.80912C9.276 2.73612 8.732 2.72912 8.196 2.79912L7.468 2.17612C6.829 1.63012 5.911 1.54412 5.183 1.96512L4.832 2.16812C4.104 2.58712 3.719 3.42512 3.873 4.25212L4.047 5.18512C3.721 5.60812 3.472 6.08512 3.263 6.58412L2.324 6.91512C1.532 7.19512 1 7.94812 1 8.78812V9.19312C1 10.0341 1.532 10.7861 2.324 11.0661L3.23 11.3861C3.334 11.6371 3.449 11.8851 3.588 12.1241C3.719 12.3521 3.884 12.5501 4.04 12.7561L3.856 13.7391C3.703 14.5651 4.088 15.4031 4.816 15.8231L5.168 16.0261C5.477 16.2041 5.819 16.2921 6.16 16.2921C6.623 16.2921 7.084 16.1301 7.452 15.8151L8.176 15.1951C8.454 15.2321 8.732 15.2521 9.009 15.2521C9.275 15.2521 9.54 15.2341 9.803 15.2001L10.532 15.8241C10.9 16.1391 11.361 16.3011 11.825 16.3011C12.166 16.3011 12.509 16.2141 12.817 16.0351L13.168 15.8321C13.896 15.4131 14.281 14.5751 14.127 13.7481L13.953 12.8141C14.279 12.3911 14.527 11.9151 14.736 11.4171L15.676 11.0851C16.468 10.8051 17 10.0521 17 9.21212V8.80712C17 7.96612 16.468 7.21412 15.676 6.93412ZM9 12.0001C7.343 12.0001 6 10.6571 6 9.00012C6 7.34312 7.343 6.00012 9 6.00012C10.657 6.00012 12 7.34312 12 9.00012C12 10.6571 10.657 12.0001 9 12.0001Z" fill="#666666"/>
</svg>
