<svg width="16" height="16" viewBox="0 0 16 16" fill="none" xmlns="http://www.w3.org/2000/svg">
<g clip-path="url(#clip0_40005116_35649)">
<path d="M3.55556 13.9998C4.41467 13.9998 5.11111 13.3033 5.11111 12.4442C5.11111 11.5851 4.41467 10.8887 3.55556 10.8887C2.69645 10.8887 2 11.5851 2 12.4442C2 13.3033 2.69645 13.9998 3.55556 13.9998Z" stroke="#515151" stroke-width="1.5" stroke-linecap="round" stroke-linejoin="round"/>
<path d="M9.99989 13.9998C10.859 13.9998 11.5554 13.3033 11.5554 12.4442C11.5554 11.5851 10.859 10.8887 9.99989 10.8887C9.14078 10.8887 8.44434 11.5851 8.44434 12.4442C8.44434 13.3033 9.14078 13.9998 9.99989 13.9998Z" stroke="#515151" stroke-width="1.5" stroke-linecap="round" stroke-linejoin="round"/>
<path d="M8.46155 12.2227H5.11133" stroke="#515151" stroke-width="1.5" stroke-linecap="round" stroke-linejoin="round"/>
<path d="M4.22266 2.44434H8.22266C9.20488 2.44434 10.0004 3.23989 10.0004 4.22211V10.8888" stroke="#515151" stroke-width="1.5" stroke-linecap="round" stroke-linejoin="round"/>
<path d="M10 5.11133H11.9591C12.2613 5.11133 12.5431 5.26511 12.7067 5.51933L14.3031 8.00288C14.3956 8.146 14.4444 8.31311 14.4444 8.48377V10.4447C14.4444 11.4269 13.6489 12.2224 12.6667 12.2224H11.5556" stroke="#515151" stroke-width="1.5" stroke-linecap="round" stroke-linejoin="round"/>
<path d="M10 8.22266H14.3582" stroke="#515151" stroke-width="1.5" stroke-linecap="round" stroke-linejoin="round"/>
<path d="M2.44434 5.11133H6.22211" stroke="#515151" stroke-width="1.5" stroke-linecap="round" stroke-linejoin="round"/>
<path d="M0.666992 7.77734H4.44477" stroke="#515151" stroke-width="1.5" stroke-linecap="round" stroke-linejoin="round"/>
</g>
<defs>
<clipPath id="clip0_40005116_35649">
<rect width="16" height="16" fill="white"/>
</clipPath>
</defs>
</svg>
