<svg width="20" height="23" viewBox="0 0 20 23" fill="none" xmlns="http://www.w3.org/2000/svg">
<path fill-rule="evenodd" clip-rule="evenodd" d="M0 7.1673C0 5.9887 0.628785 4.89964 1.64949 4.31037L8.35019 0.441924C9.37087 -0.147335 10.6284 -0.147306 11.649 0.442001L18.3492 4.31055C19.3696 4.89973 19.9983 5.98847 19.9986 7.16679L20 14.9035C20.0002 16.0823 19.3713 17.1717 18.3504 17.7611L11.649 21.6295C10.6283 22.2187 9.37096 22.2187 8.35037 21.6295L1.64949 17.7609C0.628786 17.1716 0 16.0826 0 14.904V7.1673ZM8.57035 7.73679L5.71393 6.08737C4.92465 5.63192 4.92465 4.89339 5.71393 4.43794L8.57035 2.78852C9.35963 2.33307 10.6386 2.33307 11.4279 2.78852L14.2843 4.43794C15.0736 4.89339 15.0736 5.63192 14.2843 6.08737L11.4279 7.73679C10.6386 8.19224 9.35963 8.19224 8.57035 7.73679ZM8.09464 15.709C8.09464 17.6827 6.70938 18.4828 4.99982 17.4959C3.29026 16.509 1.905 14.109 1.905 12.1353C1.905 10.1615 3.29026 9.36152 4.99982 10.3484C6.70938 11.3352 8.09464 13.7353 8.09464 15.709ZM15.3753 11.1563C15.2089 10.9194 14.7922 11.1598 14.6258 11.5892L12.2826 17.6278C12.1978 17.8476 12.2107 18.0324 12.288 18.1348C12.3621 18.2325 12.4953 18.2551 12.6574 18.1611L17.3437 15.4557C17.6766 15.2634 17.8849 14.7266 17.7184 14.4895L15.3753 11.1563Z" fill="black"/>
</svg>
